<svg width="401" height="401" viewBox="0 0 401 401" fill="none" xmlns="http://www.w3.org/2000/svg">
<path d="M134.489 190.25C131.889 190.25 129.423 189.817 127.089 188.95C124.789 188.05 123.006 186.9 121.739 185.5L122.889 183.6C124.089 184.833 125.723 185.883 127.789 186.75C129.889 187.583 132.106 188 134.439 188C136.773 188 138.673 187.7 140.139 187.1C141.639 186.467 142.739 185.633 143.439 184.6C144.173 183.567 144.539 182.417 144.539 181.15C144.539 179.65 144.139 178.45 143.339 177.55C142.539 176.65 141.489 175.933 140.189 175.4C138.889 174.867 137.473 174.417 135.939 174.05C134.406 173.683 132.856 173.3 131.289 172.9C129.723 172.467 128.289 171.917 126.989 171.25C125.689 170.583 124.639 169.683 123.839 168.55C123.073 167.383 122.689 165.883 122.689 164.05C122.689 162.383 123.123 160.85 123.989 159.45C124.856 158.05 126.206 156.917 128.039 156.05C129.873 155.183 132.223 154.75 135.089 154.75C137.023 154.75 138.923 155.033 140.789 155.6C142.689 156.167 144.306 156.933 145.639 157.9L144.689 159.95C143.223 158.95 141.639 158.217 139.939 157.75C138.273 157.25 136.656 157 135.089 157C132.856 157 131.006 157.317 129.539 157.95C128.073 158.583 126.989 159.433 126.289 160.5C125.589 161.533 125.239 162.7 125.239 164C125.239 165.5 125.623 166.7 126.389 167.6C127.189 168.5 128.239 169.217 129.539 169.75C130.839 170.283 132.273 170.733 133.839 171.1C135.406 171.467 136.956 171.867 138.489 172.3C140.023 172.7 141.439 173.233 142.739 173.9C144.039 174.567 145.089 175.467 145.889 176.6C146.689 177.733 147.089 179.2 147.089 181C147.089 182.633 146.639 184.167 145.739 185.6C144.839 187 143.456 188.133 141.589 189C139.756 189.833 137.389 190.25 134.489 190.25ZM162.558 190.2C160.258 190.2 158.492 189.567 157.258 188.3C156.058 187.033 155.458 185.3 155.458 183.1V158.2H157.958V182.85C157.958 184.517 158.375 185.8 159.208 186.7C160.042 187.6 161.242 188.05 162.808 188.05C164.442 188.05 165.792 187.567 166.858 186.6L167.908 188.35C167.242 188.983 166.425 189.45 165.458 189.75C164.525 190.05 163.558 190.2 162.558 190.2ZM150.658 166.05V163.9H166.258V166.05H150.658ZM185.48 190.2C183.247 190.2 181.313 189.8 179.68 189C178.047 188.167 176.78 186.933 175.88 185.3C175.013 183.633 174.58 181.583 174.58 179.15V163.9H177.08V178.95C177.08 181.883 177.83 184.117 179.33 185.65C180.83 187.183 182.947 187.95 185.68 187.95C187.647 187.95 189.347 187.533 190.78 186.7C192.213 185.867 193.313 184.7 194.08 183.2C194.847 181.667 195.23 179.867 195.23 177.8V163.9H197.73V190H195.33V182.75L195.68 183.6C194.913 185.633 193.63 187.25 191.83 188.45C190.063 189.617 187.947 190.2 185.48 190.2ZM218.377 190.2C215.944 190.2 213.744 189.65 211.777 188.55C209.844 187.417 208.311 185.85 207.177 183.85C206.044 181.85 205.477 179.55 205.477 176.95C205.477 174.317 206.044 172.017 207.177 170.05C208.311 168.05 209.844 166.5 211.777 165.4C213.744 164.267 215.944 163.7 218.377 163.7C220.677 163.7 222.744 164.233 224.577 165.3C226.444 166.367 227.911 167.883 228.977 169.85C230.077 171.817 230.627 174.183 230.627 176.95C230.627 179.65 230.094 182 229.027 184C227.961 186 226.494 187.533 224.627 188.6C222.794 189.667 220.711 190.2 218.377 190.2ZM218.527 187.95C220.527 187.95 222.311 187.5 223.877 186.6C225.477 185.667 226.727 184.367 227.627 182.7C228.561 181.033 229.027 179.117 229.027 176.95C229.027 174.75 228.561 172.833 227.627 171.2C226.727 169.533 225.477 168.25 223.877 167.35C222.311 166.417 220.527 165.95 218.527 165.95C216.527 165.95 214.727 166.417 213.127 167.35C211.561 168.25 210.311 169.533 209.377 171.2C208.477 172.833 208.027 174.75 208.027 176.95C208.027 179.117 208.477 181.033 209.377 182.7C210.311 184.367 211.561 185.667 213.127 186.6C214.727 187.5 216.527 187.95 218.527 187.95ZM229.077 190V181.45L229.527 176.9L229.027 172.35V152.9H231.527V190H229.077ZM242.068 190V163.9H244.568V190H242.068ZM243.318 157.55C242.751 157.55 242.268 157.35 241.868 156.95C241.468 156.55 241.268 156.083 241.268 155.55C241.268 154.983 241.468 154.5 241.868 154.1C242.268 153.7 242.751 153.5 243.318 153.5C243.918 153.5 244.401 153.7 244.768 154.1C245.168 154.467 245.368 154.933 245.368 155.5C245.368 156.067 245.168 156.55 244.768 156.95C244.401 157.35 243.918 157.55 243.318 157.55ZM265.305 190.2C262.805 190.2 260.571 189.633 258.605 188.5C256.671 187.367 255.121 185.8 253.955 183.8C252.821 181.8 252.255 179.517 252.255 176.95C252.255 174.35 252.821 172.067 253.955 170.1C255.121 168.1 256.671 166.533 258.605 165.4C260.571 164.267 262.805 163.7 265.305 163.7C267.805 163.7 270.038 164.267 272.005 165.4C273.971 166.533 275.521 168.1 276.655 170.1C277.788 172.067 278.355 174.35 278.355 176.95C278.355 179.517 277.788 181.8 276.655 183.8C275.521 185.8 273.971 187.367 272.005 188.5C270.038 189.633 267.805 190.2 265.305 190.2ZM265.305 187.95C267.305 187.95 269.105 187.5 270.705 186.6C272.305 185.667 273.555 184.367 274.455 182.7C275.355 181.033 275.805 179.117 275.805 176.95C275.805 174.75 275.355 172.833 274.455 171.2C273.555 169.533 272.305 168.25 270.705 167.35C269.105 166.417 267.305 165.95 265.305 165.95C263.305 165.95 261.505 166.417 259.905 167.35C258.338 168.25 257.088 169.533 256.155 171.2C255.255 172.833 254.805 174.75 254.805 176.95C254.805 179.117 255.255 181.033 256.155 182.7C257.088 184.367 258.338 185.667 259.905 186.6C261.505 187.5 263.305 187.95 265.305 187.95Z" fill="#FEFCFD"/>
<path d="M326.75 259L352.442 231.3C356 227.465 356 221.535 352.442 217.7L326.75 190" stroke="#FEFCFD" stroke-width="8" stroke-linecap="round"/>
<path d="M74 259L47.6117 231.412C43.9136 227.546 43.9136 221.454 47.6117 217.588L74 190" stroke="#FEFCFD" stroke-width="8" stroke-linecap="round"/>
<path d="M306.275 190.338L273 258.662" stroke="#FEFCFD" stroke-width="8" stroke-linecap="round"/>
<path d="M100.12 230.98V243.58C100.12 245.353 100.307 246.637 100.68 247.43C101.053 248.223 101.707 248.76 102.64 249.04C103.573 249.32 105.09 249.507 107.19 249.6V251C104.763 250.86 101.333 250.79 96.9 250.79C92.8867 250.79 89.9 250.86 87.94 251V249.6C89.62 249.507 90.8333 249.32 91.58 249.04C92.3733 248.76 92.91 248.223 93.19 247.43C93.47 246.637 93.61 245.353 93.61 243.58V208.86C93.61 207.087 93.47 205.803 93.19 205.01C92.91 204.217 92.3733 203.68 91.58 203.4C90.8333 203.12 89.62 202.933 87.94 202.84V201.44C89.9 201.58 92.7467 201.65 96.48 201.65L104.04 201.58C104.927 201.533 105.93 201.51 107.05 201.51C112.51 201.51 116.687 202.77 119.58 205.29C122.473 207.763 123.92 211.1 123.92 215.3C123.92 217.867 123.337 220.34 122.17 222.72C121.05 225.053 119.113 227.013 116.36 228.6C113.653 230.187 110.037 230.98 105.51 230.98H100.12ZM105.3 202.84C103.853 202.84 102.757 203.003 102.01 203.33C101.31 203.657 100.82 204.24 100.54 205.08C100.26 205.92 100.12 207.18 100.12 208.86V229.58H104.81C109.383 229.58 112.533 228.367 114.26 225.94C116.033 223.467 116.92 220.177 116.92 216.07C116.92 211.543 116.01 208.207 114.19 206.06C112.417 203.913 109.453 202.84 105.3 202.84ZM163.327 242.74C163.327 245.167 163.491 247.92 163.817 251C160.784 250.86 155.674 250.79 148.487 250.79C139.854 250.79 133.321 250.86 128.887 251V249.6C130.567 249.507 131.781 249.32 132.527 249.04C133.321 248.76 133.857 248.223 134.137 247.43C134.417 246.637 134.557 245.353 134.557 243.58V215.86C134.557 214.087 134.417 212.803 134.137 212.01C133.857 211.217 133.321 210.68 132.527 210.4C131.781 210.12 130.567 209.933 128.887 209.84V208.44C133.321 208.58 139.854 208.65 148.487 208.65C155.021 208.65 159.664 208.58 162.417 208.44C162.091 211.24 161.927 213.76 161.927 216C161.927 217.82 161.997 219.267 162.137 220.34H160.527C160.201 216.513 159.384 213.853 158.077 212.36C156.817 210.82 154.741 210.05 151.847 210.05H146.737C145.057 210.05 143.821 210.19 143.027 210.47C142.281 210.703 141.767 211.217 141.487 212.01C141.207 212.803 141.067 214.087 141.067 215.86V228.88H146.877C148.371 228.88 149.514 228.507 150.307 227.76C151.101 226.967 151.637 226.127 151.917 225.24C152.197 224.307 152.454 223.14 152.687 221.74H154.297C154.157 223.327 154.087 225.053 154.087 226.92V229.58C154.087 231.4 154.227 234.013 154.507 237.42H152.897C152.617 235.18 152.081 233.43 151.287 232.17C150.494 230.91 149.024 230.28 146.877 230.28H141.067V243.58C141.067 245.353 141.207 246.637 141.487 247.43C141.767 248.223 142.281 248.76 143.027 249.04C143.821 249.273 145.057 249.39 146.737 249.39H151.847C154.181 249.39 156.024 249.017 157.377 248.27C158.731 247.523 159.757 246.333 160.457 244.7C161.157 243.02 161.647 240.687 161.927 237.7H163.537C163.397 238.96 163.327 240.64 163.327 242.74ZM211.818 248.06C210.931 249.32 209.905 250.3 208.738 251C207.618 251.653 206.265 251.98 204.678 251.98C200.758 251.98 198.355 250.207 197.468 246.66L195.298 237.91C194.645 235.297 193.665 233.547 192.358 232.66C191.098 231.773 189.208 231.33 186.688 231.33H182.698V243.58C182.698 245.353 182.838 246.637 183.118 247.43C183.398 248.223 183.911 248.76 184.658 249.04C185.451 249.32 186.688 249.507 188.368 249.6V251C186.221 250.86 183.258 250.79 179.478 250.79C175.465 250.79 172.478 250.86 170.518 251V249.6C172.198 249.507 173.411 249.32 174.158 249.04C174.951 248.76 175.488 248.223 175.768 247.43C176.048 246.637 176.188 245.353 176.188 243.58V215.86C176.188 214.087 176.048 212.803 175.768 212.01C175.488 211.217 174.951 210.68 174.158 210.4C173.411 210.12 172.198 209.933 170.518 209.84V208.44C172.478 208.58 175.325 208.65 179.058 208.65L186.198 208.58C186.991 208.533 187.901 208.51 188.928 208.51C194.155 208.51 198.145 209.49 200.898 211.45C203.698 213.41 205.098 215.953 205.098 219.08C205.098 221.787 204.001 224.26 201.808 226.5C199.661 228.74 196.115 230.163 191.168 230.77C192.101 230.863 192.895 230.957 193.548 231.05C196.021 231.423 197.981 232.17 199.428 233.29C200.875 234.41 201.901 236.207 202.508 238.68L204.048 245.05C204.421 246.683 204.818 247.85 205.238 248.55C205.705 249.203 206.288 249.53 206.988 249.53C208.155 249.53 209.438 248.737 210.838 247.15L211.818 248.06ZM187.178 209.84C185.918 209.84 184.961 210.003 184.308 210.33C183.701 210.657 183.281 211.24 183.048 212.08C182.815 212.92 182.698 214.18 182.698 215.86V229.93H187.388C191.495 229.93 194.295 229.067 195.788 227.34C197.328 225.567 198.098 223.07 198.098 219.85C198.098 216.49 197.235 213.993 195.508 212.36C193.828 210.68 191.051 209.84 187.178 209.84ZM248.601 208.65C250.561 208.65 252.124 208.58 253.291 208.44V209.84C251.984 210.167 250.934 210.82 250.141 211.8C249.348 212.733 248.438 214.367 247.411 216.7L232.081 251.35H230.961L214.581 214.32C213.321 211.427 211.711 209.933 209.751 209.84V208.44C211.664 208.58 214.161 208.65 217.241 208.65C221.254 208.65 224.241 208.58 226.201 208.44V209.84C224.474 209.933 223.191 210.167 222.351 210.54C221.558 210.913 221.161 211.543 221.161 212.43C221.161 213.177 221.488 214.273 222.141 215.72L234.181 242.88L244.611 219.64C245.778 217.12 246.361 215.137 246.361 213.69C246.361 212.383 245.894 211.45 244.961 210.89C244.074 210.283 242.698 209.933 240.831 209.84V208.44C242.231 208.58 244.821 208.65 248.601 208.65ZM257.472 243.02C258.686 243.02 259.736 243.463 260.622 244.35C261.509 245.237 261.952 246.287 261.952 247.5C261.952 248.713 261.509 249.763 260.622 250.65C259.736 251.537 258.686 251.98 257.472 251.98C256.259 251.98 255.209 251.537 254.322 250.65C253.436 249.763 252.992 248.713 252.992 247.5C252.992 246.287 253.436 245.237 254.322 244.35C255.209 243.463 256.259 243.02 257.472 243.02Z" fill="white"/>
</svg>
