<svg width="682" height="164" viewBox="0 0 682 164" fill="none" xmlns="http://www.w3.org/2000/svg">
<path d="M78.9789 95.4V113.4C78.9789 115.933 79.2456 117.767 79.7789 118.9C80.3122 120.033 81.2456 120.8 82.5789 121.2C83.9122 121.6 86.0789 121.867 89.0789 122V124C85.6122 123.8 80.7122 123.7 74.3789 123.7C68.6456 123.7 64.3789 123.8 61.5789 124V122C63.9789 121.867 65.7122 121.6 66.7789 121.2C67.9122 120.8 68.6789 120.033 69.0789 118.9C69.4789 117.767 69.6789 115.933 69.6789 113.4V63.8C69.6789 61.2667 69.4789 59.4333 69.0789 58.3C68.6789 57.1667 67.9122 56.4 66.7789 56C65.7122 55.6 63.9789 55.3333 61.5789 55.2V53.2C64.3789 53.4 68.4456 53.5 73.7789 53.5L84.5789 53.4C85.8456 53.3333 87.2789 53.3 88.8789 53.3C96.6789 53.3 102.646 55.1 106.779 58.7C110.912 62.2333 112.979 67 112.979 73C112.979 76.6667 112.146 80.2 110.479 83.6C108.879 86.9333 106.112 89.7333 102.179 92C98.3122 94.2667 93.1456 95.4 86.6789 95.4H78.9789ZM86.3789 55.2C84.3122 55.2 82.7456 55.4333 81.6789 55.9C80.6789 56.3667 79.9789 57.2 79.5789 58.4C79.1789 59.6 78.9789 61.4 78.9789 63.8V93.4H85.6789C92.2122 93.4 96.7122 91.6667 99.1789 88.2C101.712 84.6667 102.979 79.9667 102.979 74.1C102.979 67.6333 101.679 62.8667 99.0789 59.8C96.5456 56.7333 92.3122 55.2 86.3789 55.2ZM169.275 112.2C169.275 115.667 169.508 119.6 169.975 124C165.642 123.8 158.342 123.7 148.075 123.7C135.742 123.7 126.408 123.8 120.075 124V122C122.475 121.867 124.208 121.6 125.275 121.2C126.408 120.8 127.175 120.033 127.575 118.9C127.975 117.767 128.175 115.933 128.175 113.4V73.8C128.175 71.2667 127.975 69.4333 127.575 68.3C127.175 67.1667 126.408 66.4 125.275 66C124.208 65.6 122.475 65.3333 120.075 65.2V63.2C126.408 63.4 135.742 63.5 148.075 63.5C157.408 63.5 164.042 63.4 167.975 63.2C167.508 67.2 167.275 70.8 167.275 74C167.275 76.6 167.375 78.6667 167.575 80.2H165.275C164.808 74.7333 163.642 70.9333 161.775 68.8C159.975 66.6 157.008 65.5 152.875 65.5H145.575C143.175 65.5 141.408 65.7 140.275 66.1C139.208 66.4333 138.475 67.1667 138.075 68.3C137.675 69.4333 137.475 71.2667 137.475 73.8V92.4H145.775C147.908 92.4 149.542 91.8667 150.675 90.8C151.808 89.6667 152.575 88.4667 152.975 87.2C153.375 85.8667 153.742 84.2 154.075 82.2H156.375C156.175 84.4667 156.075 86.9333 156.075 89.6V93.4C156.075 96 156.275 99.7333 156.675 104.6H154.375C153.975 101.4 153.208 98.9 152.075 97.1C150.942 95.3 148.842 94.4 145.775 94.4H137.475V113.4C137.475 115.933 137.675 117.767 138.075 118.9C138.475 120.033 139.208 120.8 140.275 121.2C141.408 121.533 143.175 121.7 145.575 121.7H152.875C156.208 121.7 158.842 121.167 160.775 120.1C162.708 119.033 164.175 117.333 165.175 115C166.175 112.6 166.875 109.267 167.275 105H169.575C169.375 106.8 169.275 109.2 169.275 112.2ZM238.548 119.8C237.281 121.6 235.814 123 234.148 124C232.548 124.933 230.614 125.4 228.348 125.4C222.748 125.4 219.314 122.867 218.048 117.8L214.948 105.3C214.014 101.567 212.614 99.0667 210.748 97.8C208.948 96.5333 206.248 95.9 202.648 95.9H196.948V113.4C196.948 115.933 197.148 117.767 197.548 118.9C197.948 120.033 198.681 120.8 199.748 121.2C200.881 121.6 202.648 121.867 205.048 122V124C201.981 123.8 197.748 123.7 192.348 123.7C186.614 123.7 182.348 123.8 179.548 124V122C181.948 121.867 183.681 121.6 184.748 121.2C185.881 120.8 186.648 120.033 187.048 118.9C187.448 117.767 187.648 115.933 187.648 113.4V73.8C187.648 71.2667 187.448 69.4333 187.048 68.3C186.648 67.1667 185.881 66.4 184.748 66C183.681 65.6 181.948 65.3333 179.548 65.2V63.2C182.348 63.4 186.414 63.5 191.748 63.5L201.948 63.4C203.081 63.3333 204.381 63.3 205.848 63.3C213.314 63.3 219.014 64.7 222.948 67.5C226.948 70.3 228.948 73.9333 228.948 78.4C228.948 82.2667 227.381 85.8 224.248 89C221.181 92.2 216.114 94.2333 209.048 95.1C210.381 95.2333 211.514 95.3667 212.448 95.5C215.981 96.0333 218.781 97.1 220.848 98.7C222.914 100.3 224.381 102.867 225.248 106.4L227.448 115.5C227.981 117.833 228.548 119.5 229.148 120.5C229.814 121.433 230.648 121.9 231.648 121.9C233.314 121.9 235.148 120.767 237.148 118.5L238.548 119.8ZM203.348 65.2C201.548 65.2 200.181 65.4333 199.248 65.9C198.381 66.3667 197.781 67.2 197.448 68.4C197.114 69.6 196.948 71.4 196.948 73.8V93.9H203.648C209.514 93.9 213.514 92.6667 215.648 90.2C217.848 87.6667 218.948 84.1 218.948 79.5C218.948 74.7 217.714 71.1333 215.248 68.8C212.848 66.4 208.881 65.2 203.348 65.2ZM291.095 63.5C293.895 63.5 296.128 63.4 297.795 63.2V65.2C295.928 65.6667 294.428 66.6 293.295 68C292.161 69.3333 290.861 71.6667 289.395 75L267.495 124.5H265.895L242.495 71.6C240.695 67.4667 238.395 65.3333 235.595 65.2V63.2C238.328 63.4 241.895 63.5 246.295 63.5C252.028 63.5 256.295 63.4 259.095 63.2V65.2C256.628 65.3333 254.795 65.6667 253.595 66.2C252.461 66.7333 251.895 67.6333 251.895 68.9C251.895 69.9667 252.361 71.5333 253.295 73.6L270.495 112.4L285.395 79.2C287.061 75.6 287.895 72.7667 287.895 70.7C287.895 68.8333 287.228 67.5 285.895 66.7C284.628 65.8333 282.661 65.3333 279.995 65.2V63.2C281.995 63.4 285.695 63.5 291.095 63.5ZM350.916 112.2C350.916 115.667 351.149 119.6 351.616 124C347.282 123.8 339.982 123.7 329.716 123.7C317.382 123.7 308.049 123.8 301.716 124V122C304.116 121.867 305.849 121.6 306.916 121.2C308.049 120.8 308.816 120.033 309.216 118.9C309.616 117.767 309.816 115.933 309.816 113.4V73.8C309.816 71.2667 309.616 69.4333 309.216 68.3C308.816 67.1667 308.049 66.4 306.916 66C305.849 65.6 304.116 65.3333 301.716 65.2V63.2C308.049 63.4 317.382 63.5 329.716 63.5C339.049 63.5 345.682 63.4 349.616 63.2C349.149 67.2 348.916 70.8 348.916 74C348.916 76.6 349.016 78.6667 349.216 80.2H346.916C346.449 74.7333 345.282 70.9333 343.416 68.8C341.616 66.6 338.649 65.5 334.516 65.5H327.216C324.816 65.5 323.049 65.7 321.916 66.1C320.849 66.4333 320.116 67.1667 319.716 68.3C319.316 69.4333 319.116 71.2667 319.116 73.8V92.4H327.416C329.549 92.4 331.182 91.8667 332.316 90.8C333.449 89.6667 334.216 88.4667 334.616 87.2C335.016 85.8667 335.382 84.2 335.716 82.2H338.016C337.816 84.4667 337.716 86.9333 337.716 89.6V93.4C337.716 96 337.916 99.7333 338.316 104.6H336.016C335.616 101.4 334.849 98.9 333.716 97.1C332.582 95.3 330.482 94.4 327.416 94.4H319.116V113.4C319.116 115.933 319.316 117.767 319.716 118.9C320.116 120.033 320.849 120.8 321.916 121.2C323.049 121.533 324.816 121.7 327.216 121.7H334.516C337.849 121.7 340.482 121.167 342.416 120.1C344.349 119.033 345.816 117.333 346.816 115C347.816 112.6 348.516 109.267 348.916 105H351.216C351.016 106.8 350.916 109.2 350.916 112.2ZM421.988 65.2C419.655 65.3333 417.922 65.7 416.788 66.3C415.655 66.8333 414.888 67.7667 414.488 69.1C414.088 70.3667 413.888 72.2667 413.888 74.8V124.5H411.588L371.588 69.1V112.4C371.588 115 371.788 116.933 372.188 118.2C372.655 119.467 373.522 120.4 374.788 121C376.055 121.533 378.022 121.867 380.688 122V124C378.288 123.8 374.888 123.7 370.488 123.7C366.488 123.7 363.388 123.8 361.188 124V122C363.522 121.867 365.255 121.533 366.388 121C367.522 120.4 368.288 119.467 368.688 118.2C369.088 116.867 369.288 114.933 369.288 112.4V73.8C369.288 71.2667 369.088 69.4333 368.688 68.3C368.288 67.1667 367.522 66.4 366.388 66C365.322 65.6 363.588 65.3333 361.188 65.2V63.2C363.388 63.4 366.488 63.5 370.488 63.5C374.088 63.5 377.155 63.4 379.688 63.2L411.588 107.6V74.8C411.588 72.2 411.355 70.2667 410.888 69C410.488 67.7333 409.655 66.8333 408.388 66.3C407.122 65.7 405.155 65.3333 402.488 65.2V63.2C404.888 63.4 408.288 63.5 412.688 63.5C416.688 63.5 419.788 63.4 421.988 63.2V65.2ZM454.559 65.2C452.159 65.3333 450.393 65.6 449.259 66C448.193 66.4 447.459 67.1667 447.059 68.3C446.659 69.4333 446.459 71.2667 446.459 73.8V113.4C446.459 115.933 446.659 117.767 447.059 118.9C447.459 120.033 448.193 120.8 449.259 121.2C450.393 121.6 452.159 121.867 454.559 122V124C451.493 123.8 447.259 123.7 441.859 123.7C436.126 123.7 431.859 123.8 429.059 124V122C431.459 121.867 433.193 121.6 434.259 121.2C435.393 120.8 436.159 120.033 436.559 118.9C436.959 117.767 437.159 115.933 437.159 113.4V73.8C437.159 71.2667 436.959 69.4333 436.559 68.3C436.159 67.1667 435.393 66.4 434.259 66C433.193 65.6 431.459 65.3333 429.059 65.2V63.2C431.859 63.4 436.126 63.5 441.859 63.5C447.193 63.5 451.426 63.4 454.559 63.2V65.2ZM521.946 119.8C520.679 121.6 519.213 123 517.546 124C515.946 124.933 514.013 125.4 511.746 125.4C506.146 125.4 502.713 122.867 501.446 117.8L498.346 105.3C497.413 101.567 496.013 99.0667 494.146 97.8C492.346 96.5333 489.646 95.9 486.046 95.9H480.346V113.4C480.346 115.933 480.546 117.767 480.946 118.9C481.346 120.033 482.079 120.8 483.146 121.2C484.279 121.6 486.046 121.867 488.446 122V124C485.379 123.8 481.146 123.7 475.746 123.7C470.013 123.7 465.746 123.8 462.946 124V122C465.346 121.867 467.079 121.6 468.146 121.2C469.279 120.8 470.046 120.033 470.446 118.9C470.846 117.767 471.046 115.933 471.046 113.4V73.8C471.046 71.2667 470.846 69.4333 470.446 68.3C470.046 67.1667 469.279 66.4 468.146 66C467.079 65.6 465.346 65.3333 462.946 65.2V63.2C465.746 63.4 469.813 63.5 475.146 63.5L485.346 63.4C486.479 63.3333 487.779 63.3 489.246 63.3C496.713 63.3 502.413 64.7 506.346 67.5C510.346 70.3 512.346 73.9333 512.346 78.4C512.346 82.2667 510.779 85.8 507.646 89C504.579 92.2 499.513 94.2333 492.446 95.1C493.779 95.2333 494.913 95.3667 495.846 95.5C499.379 96.0333 502.179 97.1 504.246 98.7C506.313 100.3 507.779 102.867 508.646 106.4L510.846 115.5C511.379 117.833 511.946 119.5 512.546 120.5C513.213 121.433 514.046 121.9 515.046 121.9C516.713 121.9 518.546 120.767 520.546 118.5L521.946 119.8ZM486.746 65.2C484.946 65.2 483.579 65.4333 482.646 65.9C481.779 66.3667 481.179 67.2 480.846 68.4C480.513 69.6 480.346 71.4 480.346 73.8V93.9H487.046C492.913 93.9 496.913 92.6667 499.046 90.2C501.246 87.6667 502.346 84.1 502.346 79.5C502.346 74.7 501.113 71.1333 498.646 68.8C496.246 66.4 492.279 65.2 486.746 65.2ZM574.548 112.2C574.548 115.667 574.782 119.6 575.248 124C570.915 123.8 563.615 123.7 553.348 123.7C541.015 123.7 531.682 123.8 525.348 124V122C527.748 121.867 529.482 121.6 530.548 121.2C531.682 120.8 532.448 120.033 532.848 118.9C533.248 117.767 533.448 115.933 533.448 113.4V73.8C533.448 71.2667 533.248 69.4333 532.848 68.3C532.448 67.1667 531.682 66.4 530.548 66C529.482 65.6 527.748 65.3333 525.348 65.2V63.2C531.682 63.4 541.015 63.5 553.348 63.5C562.682 63.5 569.315 63.4 573.248 63.2C572.782 67.2 572.548 70.8 572.548 74C572.548 76.6 572.648 78.6667 572.848 80.2H570.548C570.082 74.7333 568.915 70.9333 567.048 68.8C565.248 66.6 562.282 65.5 558.148 65.5H550.848C548.448 65.5 546.682 65.7 545.548 66.1C544.482 66.4333 543.748 67.1667 543.348 68.3C542.948 69.4333 542.748 71.2667 542.748 73.8V92.4H551.048C553.182 92.4 554.815 91.8667 555.948 90.8C557.082 89.6667 557.848 88.4667 558.248 87.2C558.648 85.8667 559.015 84.2 559.348 82.2H561.648C561.448 84.4667 561.348 86.9333 561.348 89.6V93.4C561.348 96 561.548 99.7333 561.948 104.6H559.648C559.248 101.4 558.482 98.9 557.348 97.1C556.215 95.3 554.115 94.4 551.048 94.4H542.748V113.4C542.748 115.933 542.948 117.767 543.348 118.9C543.748 120.033 544.482 120.8 545.548 121.2C546.682 121.533 548.448 121.7 550.848 121.7H558.148C561.482 121.7 564.115 121.167 566.048 120.1C567.982 119.033 569.448 117.333 570.448 115C571.448 112.6 572.148 109.267 572.548 105H574.848C574.648 106.8 574.548 109.2 574.548 112.2Z" fill="#FEFCFD"/>
<path d="M132.489 55.25C129.889 55.25 127.423 54.8167 125.089 53.95C122.789 53.05 121.006 51.9 119.739 50.5L120.889 48.6C122.089 49.8333 123.723 50.8833 125.789 51.75C127.889 52.5833 130.106 53 132.439 53C134.773 53 136.673 52.7 138.139 52.1C139.639 51.4667 140.739 50.6333 141.439 49.6C142.173 48.5667 142.539 47.4167 142.539 46.15C142.539 44.65 142.139 43.45 141.339 42.55C140.539 41.65 139.489 40.9333 138.189 40.4C136.889 39.8667 135.473 39.4167 133.939 39.05C132.406 38.6833 130.856 38.3 129.289 37.9C127.723 37.4667 126.289 36.9167 124.989 36.25C123.689 35.5833 122.639 34.6833 121.839 33.55C121.073 32.3833 120.689 30.8833 120.689 29.05C120.689 27.3833 121.123 25.85 121.989 24.45C122.856 23.05 124.206 21.9167 126.039 21.05C127.873 20.1833 130.223 19.75 133.089 19.75C135.023 19.75 136.923 20.0333 138.789 20.6C140.689 21.1667 142.306 21.9333 143.639 22.9L142.689 24.95C141.223 23.95 139.639 23.2167 137.939 22.75C136.273 22.25 134.656 22 133.089 22C130.856 22 129.006 22.3167 127.539 22.95C126.073 23.5833 124.989 24.4333 124.289 25.5C123.589 26.5333 123.239 27.7 123.239 29C123.239 30.5 123.623 31.7 124.389 32.6C125.189 33.5 126.239 34.2167 127.539 34.75C128.839 35.2833 130.273 35.7333 131.839 36.1C133.406 36.4667 134.956 36.8667 136.489 37.3C138.023 37.7 139.439 38.2333 140.739 38.9C142.039 39.5667 143.089 40.4667 143.889 41.6C144.689 42.7333 145.089 44.2 145.089 46C145.089 47.6333 144.639 49.1667 143.739 50.6C142.839 52 141.456 53.1333 139.589 54C137.756 54.8333 135.389 55.25 132.489 55.25ZM160.558 55.2C158.258 55.2 156.492 54.5667 155.258 53.3C154.058 52.0333 153.458 50.3 153.458 48.1V23.2H155.958V47.85C155.958 49.5167 156.375 50.8 157.208 51.7C158.042 52.6 159.242 53.05 160.808 53.05C162.442 53.05 163.792 52.5667 164.858 51.6L165.908 53.35C165.242 53.9833 164.425 54.45 163.458 54.75C162.525 55.05 161.558 55.2 160.558 55.2ZM148.658 31.05V28.9H164.258V31.05H148.658ZM183.48 55.2C181.247 55.2 179.313 54.8 177.68 54C176.047 53.1667 174.78 51.9333 173.88 50.3C173.013 48.6333 172.58 46.5833 172.58 44.15V28.9H175.08V43.95C175.08 46.8833 175.83 49.1167 177.33 50.65C178.83 52.1833 180.947 52.95 183.68 52.95C185.647 52.95 187.347 52.5333 188.78 51.7C190.213 50.8667 191.313 49.7 192.08 48.2C192.847 46.6667 193.23 44.8667 193.23 42.8V28.9H195.73V55H193.33V47.75L193.68 48.6C192.913 50.6333 191.63 52.25 189.83 53.45C188.063 54.6167 185.947 55.2 183.48 55.2ZM216.377 55.2C213.944 55.2 211.744 54.65 209.777 53.55C207.844 52.4167 206.311 50.85 205.177 48.85C204.044 46.85 203.477 44.55 203.477 41.95C203.477 39.3167 204.044 37.0167 205.177 35.05C206.311 33.05 207.844 31.5 209.777 30.4C211.744 29.2667 213.944 28.7 216.377 28.7C218.677 28.7 220.744 29.2333 222.577 30.3C224.444 31.3667 225.911 32.8833 226.977 34.85C228.077 36.8167 228.627 39.1833 228.627 41.95C228.627 44.65 228.094 47 227.027 49C225.961 51 224.494 52.5333 222.627 53.6C220.794 54.6667 218.711 55.2 216.377 55.2ZM216.527 52.95C218.527 52.95 220.311 52.5 221.877 51.6C223.477 50.6667 224.727 49.3667 225.627 47.7C226.561 46.0333 227.027 44.1167 227.027 41.95C227.027 39.75 226.561 37.8333 225.627 36.2C224.727 34.5333 223.477 33.25 221.877 32.35C220.311 31.4167 218.527 30.95 216.527 30.95C214.527 30.95 212.727 31.4167 211.127 32.35C209.561 33.25 208.311 34.5333 207.377 36.2C206.477 37.8333 206.027 39.75 206.027 41.95C206.027 44.1167 206.477 46.0333 207.377 47.7C208.311 49.3667 209.561 50.6667 211.127 51.6C212.727 52.5 214.527 52.95 216.527 52.95ZM227.077 55V46.45L227.527 41.9L227.027 37.35V17.9H229.527V55H227.077ZM240.068 55V28.9H242.568V55H240.068ZM241.318 22.55C240.751 22.55 240.268 22.35 239.868 21.95C239.468 21.55 239.268 21.0833 239.268 20.55C239.268 19.9833 239.468 19.5 239.868 19.1C240.268 18.7 240.751 18.5 241.318 18.5C241.918 18.5 242.401 18.7 242.768 19.1C243.168 19.4667 243.368 19.9333 243.368 20.5C243.368 21.0667 243.168 21.55 242.768 21.95C242.401 22.35 241.918 22.55 241.318 22.55ZM263.305 55.2C260.805 55.2 258.571 54.6333 256.605 53.5C254.671 52.3667 253.121 50.8 251.955 48.8C250.821 46.8 250.255 44.5167 250.255 41.95C250.255 39.35 250.821 37.0667 251.955 35.1C253.121 33.1 254.671 31.5333 256.605 30.4C258.571 29.2667 260.805 28.7 263.305 28.7C265.805 28.7 268.038 29.2667 270.005 30.4C271.971 31.5333 273.521 33.1 274.655 35.1C275.788 37.0667 276.355 39.35 276.355 41.95C276.355 44.5167 275.788 46.8 274.655 48.8C273.521 50.8 271.971 52.3667 270.005 53.5C268.038 54.6333 265.805 55.2 263.305 55.2ZM263.305 52.95C265.305 52.95 267.105 52.5 268.705 51.6C270.305 50.6667 271.555 49.3667 272.455 47.7C273.355 46.0333 273.805 44.1167 273.805 41.95C273.805 39.75 273.355 37.8333 272.455 36.2C271.555 34.5333 270.305 33.25 268.705 32.35C267.105 31.4167 265.305 30.95 263.305 30.95C261.305 30.95 259.505 31.4167 257.905 32.35C256.338 33.25 255.088 34.5333 254.155 36.2C253.255 37.8333 252.805 39.75 252.805 41.95C252.805 44.1167 253.255 46.0333 254.155 47.7C255.088 49.3667 256.338 50.6667 257.905 51.6C259.505 52.5 261.305 52.95 263.305 52.95Z" fill="#FEFCFD"/>
<path d="M648.75 124L674.442 96.3004C678 92.4648 678 86.5352 674.442 82.6996L648.75 55" stroke="#FEFCFD" stroke-width="8" stroke-linecap="round"/>
<path d="M34 124L7.6117 96.4122C3.91359 92.546 3.91359 86.454 7.6117 82.5878L34 55" stroke="#FEFCFD" stroke-width="8" stroke-linecap="round"/>
<path d="M628.275 55.338L595 123.662" stroke="#FEFCFD" stroke-width="8" stroke-linecap="round"/>
</svg>
